<?xml version="1.0" encoding="UTF-8" standalone="no"?>
<!DOCTYPE svg PUBLIC "-//W3C//DTD SVG 1.1//EN"
 "http://www.w3.org/Graphics/SVG/1.1/DTD/svg11.dtd">
<!-- Generated by graphviz version 2.43.0 (0)
 -->
<!-- Title: %3 Pages: 1 -->
<svg width="360pt" height="35pt"
 viewBox="0.00 0.00 360.00 35.24" xmlns="http://www.w3.org/2000/svg" xmlns:xlink="http://www.w3.org/1999/xlink">
<g id="graph0" class="graph" transform="scale(2.37 2.37) rotate(0) translate(4 79.6)">
<title>%3</title>
<polygon fill="white" stroke="transparent" points="-4,4 -4,-79.6 850,-79.6 850,4 -4,4"/>
<!-- var0 -->
<g id="node1" class="node">
<title>var0</title>
<ellipse fill="none" stroke="black" cx="27" cy="-57.6" rx="27" ry="18"/>
<text text-anchor="middle" x="27" y="-53.9" font-family="Times,serif" font-size="14.00">0</text>
</g>
<!-- factor0 -->
<g id="node13" class="node">
<title>factor0</title>
<ellipse fill="black" stroke="black" cx="27" cy="-1.8" rx="1.8" ry="1.8"/>
</g>
<!-- var0&#45;&#45;factor0 -->
<g id="edge1" class="edge">
<title>var0&#45;&#45;factor0</title>
<path fill="none" stroke="black" d="M27,-39.58C27,-25.79 27,-7.97 27,-3.73"/>
</g>
<!-- var1 -->
<g id="node2" class="node">
<title>var1</title>
<ellipse fill="none" stroke="black" cx="99" cy="-57.6" rx="27" ry="18"/>
<text text-anchor="middle" x="99" y="-53.9" font-family="Times,serif" font-size="14.00">1</text>
</g>
<!-- factor1 -->
<g id="node14" class="node">
<title>factor1</title>
<ellipse fill="black" stroke="black" cx="124" cy="-1.8" rx="1.8" ry="1.8"/>
</g>
<!-- var1&#45;&#45;factor1 -->
<g id="edge2" class="edge">
<title>var1&#45;&#45;factor1</title>
<path fill="none" stroke="black" d="M106.64,-40.17C113.07,-26.32 121.54,-8.1 123.56,-3.76"/>
</g>
<!-- var2 -->
<g id="node3" class="node">
<title>var2</title>
<ellipse fill="none" stroke="black" cx="171" cy="-57.6" rx="27" ry="18"/>
<text text-anchor="middle" x="171" y="-53.9" font-family="Times,serif" font-size="14.00">2</text>
</g>
<!-- var2&#45;&#45;factor1 -->
<g id="edge3" class="edge">
<title>var2&#45;&#45;factor1</title>
<path fill="none" stroke="black" d="M157.91,-41.61C145.74,-27.68 128.91,-8.41 124.89,-3.81"/>
</g>
<!-- factor2 -->
<g id="node15" class="node">
<title>factor2</title>
<ellipse fill="black" stroke="black" cx="196" cy="-1.8" rx="1.8" ry="1.8"/>
</g>
<!-- var2&#45;&#45;factor2 -->
<g id="edge4" class="edge">
<title>var2&#45;&#45;factor2</title>
<path fill="none" stroke="black" d="M178.64,-40.17C185.07,-26.32 193.54,-8.1 195.56,-3.76"/>
</g>
<!-- var3 -->
<g id="node4" class="node">
<title>var3</title>
<ellipse fill="none" stroke="black" cx="243" cy="-57.6" rx="27" ry="18"/>
<text text-anchor="middle" x="243" y="-53.9" font-family="Times,serif" font-size="14.00">3</text>
</g>
<!-- var3&#45;&#45;factor2 -->
<g id="edge5" class="edge">
<title>var3&#45;&#45;factor2</title>
<path fill="none" stroke="black" d="M229.91,-41.61C217.74,-27.68 200.91,-8.41 196.89,-3.81"/>
</g>
<!-- factor3 -->
<g id="node16" class="node">
<title>factor3</title>
<ellipse fill="black" stroke="black" cx="268" cy="-1.8" rx="1.8" ry="1.8"/>
</g>
<!-- var3&#45;&#45;factor3 -->
<g id="edge6" class="edge">
<title>var3&#45;&#45;factor3</title>
<path fill="none" stroke="black" d="M250.64,-40.17C257.07,-26.32 265.54,-8.1 267.56,-3.76"/>
</g>
<!-- var4 -->
<g id="node5" class="node">
<title>var4</title>
<ellipse fill="none" stroke="black" cx="315" cy="-57.6" rx="27" ry="18"/>
<text text-anchor="middle" x="315" y="-53.9" font-family="Times,serif" font-size="14.00">4</text>
</g>
<!-- var4&#45;&#45;factor3 -->
<g id="edge7" class="edge">
<title>var4&#45;&#45;factor3</title>
<path fill="none" stroke="black" d="M301.91,-41.61C289.74,-27.68 272.91,-8.41 268.89,-3.81"/>
</g>
<!-- factor4 -->
<g id="node17" class="node">
<title>factor4</title>
<ellipse fill="black" stroke="black" cx="340" cy="-1.8" rx="1.8" ry="1.8"/>
</g>
<!-- var4&#45;&#45;factor4 -->
<g id="edge8" class="edge">
<title>var4&#45;&#45;factor4</title>
<path fill="none" stroke="black" d="M322.64,-40.17C329.07,-26.32 337.54,-8.1 339.56,-3.76"/>
</g>
<!-- var5 -->
<g id="node6" class="node">
<title>var5</title>
<ellipse fill="none" stroke="black" cx="387" cy="-57.6" rx="27" ry="18"/>
<text text-anchor="middle" x="387" y="-53.9" font-family="Times,serif" font-size="14.00">5</text>
</g>
<!-- var5&#45;&#45;factor4 -->
<g id="edge9" class="edge">
<title>var5&#45;&#45;factor4</title>
<path fill="none" stroke="black" d="M373.91,-41.61C361.74,-27.68 344.91,-8.41 340.89,-3.81"/>
</g>
<!-- factor5 -->
<g id="node18" class="node">
<title>factor5</title>
<ellipse fill="black" stroke="black" cx="412" cy="-1.8" rx="1.8" ry="1.8"/>
</g>
<!-- var5&#45;&#45;factor5 -->
<g id="edge10" class="edge">
<title>var5&#45;&#45;factor5</title>
<path fill="none" stroke="black" d="M394.64,-40.17C401.07,-26.32 409.54,-8.1 411.56,-3.76"/>
</g>
<!-- var6 -->
<g id="node7" class="node">
<title>var6</title>
<ellipse fill="none" stroke="black" cx="459" cy="-57.6" rx="27" ry="18"/>
<text text-anchor="middle" x="459" y="-53.9" font-family="Times,serif" font-size="14.00">6</text>
</g>
<!-- var6&#45;&#45;factor5 -->
<g id="edge11" class="edge">
<title>var6&#45;&#45;factor5</title>
<path fill="none" stroke="black" d="M445.91,-41.61C433.74,-27.68 416.91,-8.41 412.89,-3.81"/>
</g>
<!-- factor6 -->
<g id="node19" class="node">
<title>factor6</title>
<ellipse fill="black" stroke="black" cx="484" cy="-1.8" rx="1.8" ry="1.8"/>
</g>
<!-- var6&#45;&#45;factor6 -->
<g id="edge12" class="edge">
<title>var6&#45;&#45;factor6</title>
<path fill="none" stroke="black" d="M466.64,-40.17C473.07,-26.32 481.54,-8.1 483.56,-3.76"/>
</g>
<!-- var7 -->
<g id="node8" class="node">
<title>var7</title>
<ellipse fill="none" stroke="black" cx="531" cy="-57.6" rx="27" ry="18"/>
<text text-anchor="middle" x="531" y="-53.9" font-family="Times,serif" font-size="14.00">7</text>
</g>
<!-- var7&#45;&#45;factor6 -->
<g id="edge13" class="edge">
<title>var7&#45;&#45;factor6</title>
<path fill="none" stroke="black" d="M517.91,-41.61C505.74,-27.68 488.91,-8.41 484.89,-3.81"/>
</g>
<!-- factor7 -->
<g id="node20" class="node">
<title>factor7</title>
<ellipse fill="black" stroke="black" cx="556" cy="-1.8" rx="1.8" ry="1.8"/>
</g>
<!-- var7&#45;&#45;factor7 -->
<g id="edge14" class="edge">
<title>var7&#45;&#45;factor7</title>
<path fill="none" stroke="black" d="M538.64,-40.17C545.07,-26.32 553.54,-8.1 555.56,-3.76"/>
</g>
<!-- var8 -->
<g id="node9" class="node">
<title>var8</title>
<ellipse fill="none" stroke="black" cx="603" cy="-57.6" rx="27" ry="18"/>
<text text-anchor="middle" x="603" y="-53.9" font-family="Times,serif" font-size="14.00">8</text>
</g>
<!-- var8&#45;&#45;factor7 -->
<g id="edge15" class="edge">
<title>var8&#45;&#45;factor7</title>
<path fill="none" stroke="black" d="M589.91,-41.61C577.74,-27.68 560.91,-8.41 556.89,-3.81"/>
</g>
<!-- factor8 -->
<g id="node21" class="node">
<title>factor8</title>
<ellipse fill="black" stroke="black" cx="628" cy="-1.8" rx="1.8" ry="1.8"/>
</g>
<!-- var8&#45;&#45;factor8 -->
<g id="edge16" class="edge">
<title>var8&#45;&#45;factor8</title>
<path fill="none" stroke="black" d="M610.64,-40.17C617.07,-26.32 625.54,-8.1 627.56,-3.76"/>
</g>
<!-- var9 -->
<g id="node10" class="node">
<title>var9</title>
<ellipse fill="none" stroke="black" cx="675" cy="-57.6" rx="27" ry="18"/>
<text text-anchor="middle" x="675" y="-53.9" font-family="Times,serif" font-size="14.00">9</text>
</g>
<!-- var9&#45;&#45;factor8 -->
<g id="edge17" class="edge">
<title>var9&#45;&#45;factor8</title>
<path fill="none" stroke="black" d="M661.91,-41.61C649.74,-27.68 632.91,-8.41 628.89,-3.81"/>
</g>
<!-- factor9 -->
<g id="node22" class="node">
<title>factor9</title>
<ellipse fill="black" stroke="black" cx="700" cy="-1.8" rx="1.8" ry="1.8"/>
</g>
<!-- var9&#45;&#45;factor9 -->
<g id="edge18" class="edge">
<title>var9&#45;&#45;factor9</title>
<path fill="none" stroke="black" d="M682.64,-40.17C689.07,-26.32 697.54,-8.1 699.56,-3.76"/>
</g>
<!-- var10 -->
<g id="node11" class="node">
<title>var10</title>
<ellipse fill="none" stroke="black" cx="747" cy="-57.6" rx="27" ry="18"/>
<text text-anchor="middle" x="747" y="-53.9" font-family="Times,serif" font-size="14.00">10</text>
</g>
<!-- var10&#45;&#45;factor9 -->
<g id="edge19" class="edge">
<title>var10&#45;&#45;factor9</title>
<path fill="none" stroke="black" d="M733.91,-41.61C721.74,-27.68 704.91,-8.41 700.89,-3.81"/>
</g>
<!-- factor10 -->
<g id="node23" class="node">
<title>factor10</title>
<ellipse fill="black" stroke="black" cx="783" cy="-1.8" rx="1.8" ry="1.8"/>
</g>
<!-- var10&#45;&#45;factor10 -->
<g id="edge20" class="edge">
<title>var10&#45;&#45;factor10</title>
<path fill="none" stroke="black" d="M757.61,-40.75C766.9,-26.86 779.37,-8.22 782.34,-3.78"/>
</g>
<!-- var11 -->
<g id="node12" class="node">
<title>var11</title>
<ellipse fill="none" stroke="black" cx="819" cy="-57.6" rx="27" ry="18"/>
<text text-anchor="middle" x="819" y="-53.9" font-family="Times,serif" font-size="14.00">11</text>
</g>
<!-- var11&#45;&#45;factor10 -->
<g id="edge21" class="edge">
<title>var11&#45;&#45;factor10</title>
<path fill="none" stroke="black" d="M808.39,-40.75C799.1,-26.86 786.63,-8.22 783.66,-3.78"/>
</g>
</g>
</svg>
